<svg width="1468" height="186" viewBox="0 0 1468 186" fill="none" xmlns="http://www.w3.org/2000/svg">
<path d="M1388.48 185.52C1361.96 185.52 1340.31 179.513 1323.54 167.5C1306.99 155.487 1297.93 138.713 1296.34 117.18H1345.3C1346.89 126.927 1351.42 134.293 1358.9 139.28C1366.38 144.267 1375.67 146.76 1386.78 146.76C1392.9 146.76 1398.68 145.967 1404.12 144.38C1409.56 142.793 1413.98 140.3 1417.38 136.9C1420.78 133.273 1422.48 128.853 1422.48 123.64C1422.48 118.427 1420.89 114.347 1417.72 111.4C1414.77 108.227 1410.24 105.733 1404.12 103.92C1398.23 102.107 1390.18 100.407 1379.98 98.82C1378.62 98.5933 1377.15 98.3667 1375.56 98.14C1374.2 97.9133 1372.73 97.6867 1371.14 97.46C1355.05 95.42 1342.01 92.9266 1332.04 89.98C1322.29 86.8066 1314.93 82.6133 1309.94 77.4C1305.18 71.96 1302.8 64.9333 1302.8 56.32C1302.8 45.8933 1306.09 36.94 1312.66 29.46C1319.23 21.7533 1328.3 15.9733 1339.86 12.12C1351.65 8.04 1365.02 6 1379.98 6C1406.05 6 1426.79 12.0067 1442.2 24.02C1457.84 36.0333 1466.34 53.0333 1467.7 75.02H1420.78C1420.1 65.0467 1416.25 57.5667 1409.22 52.58C1402.19 47.5933 1393.58 45.1 1383.38 45.1C1374.31 45.1 1366.49 47.2533 1359.92 51.56C1353.35 55.64 1350.06 61.5333 1350.06 69.24C1350.06 73.5467 1351.42 77.2867 1354.14 80.46C1357.09 83.6333 1361.51 86.3533 1367.4 88.62C1373.29 90.66 1381 92.36 1390.52 93.72C1392.11 93.9466 1393.69 94.1733 1395.28 94.4C1397.09 94.6267 1398.91 94.8533 1400.72 95.08C1401.63 95.3067 1402.53 95.42 1403.44 95.42C1404.35 95.42 1405.25 95.5333 1406.16 95.76C1420.44 97.5733 1432.11 100.18 1441.18 103.58C1450.25 106.98 1456.93 111.4 1461.24 116.84C1465.55 122.053 1467.7 128.74 1467.7 136.9C1467.7 147.1 1464.3 155.827 1457.5 163.08C1450.7 170.333 1441.29 175.887 1429.28 179.74C1417.27 183.593 1403.67 185.52 1388.48 185.52Z" fill="#959494"/>
<path d="M1167.26 184.84C1152.07 184.84 1139.83 181.213 1130.54 173.96C1121.24 166.48 1116.6 155.94 1116.6 142.34C1116.6 129.193 1120.9 118.993 1129.52 111.74C1138.36 104.487 1148.56 99.4999 1160.12 96.7799C1171.9 94.0599 1185.16 92.0199 1199.9 90.6599C1211.46 89.9799 1220.41 88.5065 1226.76 86.2399C1233.33 83.9732 1236.62 79.6665 1236.62 73.3199C1236.62 64.2532 1233.44 57.3399 1227.1 52.5799C1220.98 47.5932 1213.5 45.0999 1204.66 45.0999C1194.23 45.0999 1185.73 47.9332 1179.16 53.5999C1172.58 59.2665 1168.73 67.1999 1167.6 77.3999H1123.74C1124.42 62.6665 1128.5 50.0865 1135.98 39.6599C1143.46 29.0065 1153.2 20.9599 1165.22 15.5199C1177.46 10.0799 1190.83 7.35986 1205.34 7.35986C1219.84 7.35986 1232.76 10.0799 1244.1 15.5199C1255.43 20.9599 1264.27 28.8932 1270.62 39.3199C1276.96 49.7465 1280.14 62.2132 1280.14 76.7199V139.28H1299.86V180.76H1236.96V119.56C1233.1 138.6 1225.17 154.24 1213.16 166.48C1201.37 178.72 1186.07 184.84 1167.26 184.84ZM1190.72 148.12C1198.88 148.12 1206.47 145.74 1213.5 140.98C1220.52 136.22 1226.08 130.1 1230.16 122.62C1234.46 114.913 1236.62 106.753 1236.62 98.1399L1236.96 87.5999C1234.24 90.0932 1230.84 91.9065 1226.76 93.0399C1222.9 94.1732 1217.46 95.3065 1210.44 96.4399C1209.98 96.4399 1209.53 96.5532 1209.08 96.7799C1208.62 96.7799 1208.28 96.7799 1208.06 96.7799C1193.78 98.1399 1183.01 101.087 1175.76 105.62C1168.5 109.927 1164.88 116.5 1164.88 125.34C1164.88 133.047 1167.26 138.827 1172.02 142.68C1176.78 146.307 1183.01 148.12 1190.72 148.12Z" fill="#797979"/>
<path d="M983.457 184.84C968.27 184.84 956.03 181.213 946.737 173.96C937.444 166.48 932.797 155.94 932.797 142.34C932.797 129.193 937.104 118.993 945.717 111.74C954.557 104.487 964.757 99.4999 976.317 96.7799C988.104 94.0599 1001.36 92.0199 1016.1 90.6599C1027.66 89.9799 1036.61 88.5065 1042.96 86.2399C1049.53 83.9732 1052.82 79.6665 1052.82 73.3199C1052.82 64.2532 1049.64 57.3399 1043.3 52.5799C1037.18 47.5932 1029.7 45.0999 1020.86 45.0999C1010.43 45.0999 1001.93 47.9332 995.357 53.5999C988.784 59.2665 984.93 64.8 983.797 75H939.937C940.617 60.2667 944.697 50.0865 952.177 39.6599C959.657 29.0065 969.404 20.9599 981.417 15.5199C993.657 10.0799 1007.03 7.35986 1021.54 7.35986C1036.04 7.35986 1048.96 10.0799 1060.3 15.5199C1071.63 20.9599 1080.47 28.8932 1086.82 39.3199C1093.16 49.7465 1096.34 62.2132 1096.34 76.7199V139.28H1116.06V180.76H1053.16V119.56C1049.3 138.6 1041.37 154.24 1029.36 166.48C1017.57 178.72 1002.27 184.84 983.457 184.84ZM1006.92 148.12C1015.08 148.12 1022.67 145.74 1029.7 140.98C1036.72 136.22 1042.28 130.1 1046.36 122.62C1050.66 114.913 1052.82 106.753 1052.82 98.1399L1053.16 87.5999C1050.44 90.0932 1047.04 91.9065 1042.96 93.0399C1039.1 94.1732 1033.66 95.3065 1026.64 96.4399C1026.18 96.4399 1025.73 96.5532 1025.28 96.7799C1024.82 96.7799 1024.48 96.7799 1024.26 96.7799C1009.98 98.1399 999.21 101.087 991.957 105.62C984.704 109.927 981.077 116.5 981.077 125.34C981.077 133.047 983.457 138.827 988.217 142.68C992.977 146.307 999.21 148.12 1006.92 148.12Z" fill="#797979"/>
<path d="M851.027 185.52C824.507 185.52 802.86 179.513 786.087 167.5C769.54 155.487 760.473 138.713 758.887 117.18H807.847C809.433 126.927 813.967 134.293 821.447 139.28C828.927 144.267 838.22 146.76 849.327 146.76C855.447 146.76 861.227 145.967 866.667 144.38C872.107 142.793 876.527 140.3 879.927 136.9C883.327 133.273 885.027 128.853 885.027 123.64C885.027 118.427 883.44 114.347 880.267 111.4C877.32 108.227 872.787 105.733 866.667 103.92C860.773 102.107 852.727 100.407 842.527 98.82C841.167 98.5933 839.693 98.3667 838.107 98.14C836.747 97.9133 835.273 97.6867 833.687 97.46C817.593 95.42 804.56 92.9266 794.587 89.98C784.84 86.8066 777.473 82.6133 772.487 77.4C767.727 71.96 765.347 64.9333 765.347 56.32C765.347 45.8933 768.633 36.94 775.207 29.46C781.78 21.7533 790.847 15.9733 802.407 12.12C814.193 8.04 827.567 6 842.527 6C868.593 6 889.333 12.0067 904.747 24.02C920.387 36.0333 928.887 53.0333 930.247 75.02H883.327C882.647 65.0467 878.793 57.5667 871.767 52.58C864.74 47.5933 856.127 45.1 845.927 45.1C836.86 45.1 829.04 47.2533 822.467 51.56C815.893 55.64 812.607 61.5333 812.607 69.24C812.607 73.5467 813.967 77.2867 816.687 80.46C819.633 83.6333 824.053 86.3533 829.947 88.62C835.84 90.66 843.547 92.36 853.067 93.72C854.653 93.9466 856.24 94.1733 857.827 94.4C859.64 94.6267 861.453 94.8533 863.267 95.08C864.173 95.3067 865.08 95.42 865.987 95.42C866.893 95.42 867.8 95.5333 868.707 95.76C882.987 97.5733 894.66 100.18 903.727 103.58C912.793 106.98 919.48 111.4 923.787 116.84C928.093 122.053 930.247 128.74 930.247 136.9C930.247 147.1 926.847 155.827 920.047 163.08C913.247 170.333 903.84 175.887 891.827 179.74C879.813 183.593 866.213 185.52 851.027 185.52Z" fill="#797979"/>
<path d="M666.667 184.16C649.441 184.16 633.8 180.42 619.747 172.94C605.92 165.46 594.927 155.147 586.767 142C578.834 128.853 574.867 113.893 574.867 97.1199C574.867 79.6665 578.947 64.1399 587.107 50.5399C595.267 36.9399 606.374 26.3999 620.427 18.9199C634.481 11.2132 650.007 7.35986 667.007 7.35986C684.007 7.35986 699.307 11.2132 712.907 18.9199C726.734 26.3999 737.614 36.9399 745.547 50.5399C753.481 63.9132 757.447 78.9865 757.447 95.7599C757.447 96.2132 757.447 96.7799 757.447 97.4599C757.447 98.1399 757.447 98.7065 757.447 99.1599H621.447C621.901 107.32 624.167 114.687 628.247 121.26C632.554 127.607 637.994 132.707 644.567 136.56C651.367 140.187 658.847 142 667.007 142C674.941 142 682.081 140.413 688.427 137.24C694.774 134.067 699.194 129.873 701.687 124.66H752.347C751.214 134.18 746.907 143.587 739.427 152.88C732.174 161.947 722.201 169.427 709.507 175.32C697.041 181.213 682.761 184.16 666.667 184.16ZM712.907 92.3599C712.454 84.1999 710.187 76.9465 706.107 70.5999C702.027 64.0265 696.587 58.9265 689.787 55.2999C683.214 51.4465 675.734 49.5199 667.347 49.5199C659.187 49.5199 651.707 51.4465 644.907 55.2999C638.334 58.9265 632.894 64.0265 628.587 70.5999C624.507 76.9465 622.241 84.1999 621.787 92.3599H712.907Z" fill="#797979"/>
<path d="M288 174.928V-7.85056e-06L335.277 11.0719V68.7981C337.998 49.6727 344.233 34.7455 353.983 24.0165C363.733 13.0544 376.998 7.57331 393.777 7.57331C412.37 7.57331 426.429 13.171 435.952 24.3664C445.475 35.3286 451.144 50.9555 452.958 71.2471C455.452 51.1887 461.461 35.5618 470.984 24.3664C480.735 13.171 494.453 7.57331 512.139 7.57331C527.104 7.57331 538.895 10.722 547.511 17.0194C556.354 23.0836 562.59 31.7134 566.218 42.9088C570.073 54.1042 572 68.0984 572 84.8915V186L524.383 174.928V92.5883C524.156 80.6932 520.869 71.1305 514.52 63.9001C508.171 56.4365 499.895 52.7048 489.691 52.7048C482.889 52.7048 476.766 54.5706 471.325 58.3024C465.883 62.0342 461.574 67.0488 458.4 73.3462C455.226 79.6437 453.638 86.7574 453.638 94.6875V186L406.022 174.928V92.5883C405.795 80.6932 402.507 71.1305 396.158 63.9001C389.809 56.4365 381.533 52.7048 371.329 52.7048C364.527 52.7048 358.405 54.5706 352.963 58.3024C347.521 62.0342 343.213 67.0488 340.038 73.3462C336.864 79.6437 335.277 86.7574 335.277 94.6875V186L288 174.928Z" fill="#797979"/>
<path d="M130 100.76H250V163.76C250 173.149 242.389 180.76 233 180.76H130V100.76Z" fill="url(#paint0_linear_105_14)"/>
<path d="M0 27.7598C0 18.3709 7.61116 10.7598 17 10.7598H120V90.7598H0V27.7598Z" fill="#3984FF"/>
<rect y="100.76" width="120" height="80" fill="#FF3F3F"/>
<rect x="130" y="11" width="120" height="80" fill="#6AC9D0"/>
<defs>
<linearGradient id="paint0_linear_105_14" x1="130" y1="101" x2="244.5" y2="175.5" gradientUnits="userSpaceOnUse">
<stop stop-color="#C6229B"/>
<stop offset="0.284203" stop-color="#EA0E78"/>
<stop offset="0.581908" stop-color="#FE3452"/>
<stop offset="0.757174" stop-color="#FE7340"/>
<stop offset="1" stop-color="#FFC32E"/>
</linearGradient>
</defs>
</svg>
