<svg width="512" height="512" viewBox="0 0 512 512" fill="none" xmlns="http://www.w3.org/2000/svg">
<rect x="171.253" y="268.169" width="73.6897" height="30.2654" rx="6.57943" fill="black"/>
<rect x="264.681" y="268.169" width="73.6897" height="30.2654" rx="6.57943" fill="black"/>
<path d="M133.092 323.437V243.44H375.453V323.437" stroke="black" stroke-width="26.0731"/>
<path d="M235.597 218.166H180.83C177.215 218.166 174.485 214.892 175.152 211.339C176.128 206.141 177.419 199.377 178.644 193.241C180.548 183.705 188.561 181.321 192.329 181.321H223.865C232.195 181.321 236.955 188.365 238.145 193.241C238.843 196.102 240.224 204.579 241.302 211.531C241.844 215.026 239.133 218.166 235.597 218.166Z" fill="black"/>
<path d="M329.025 218.166H274.258C270.642 218.166 267.912 214.892 268.58 211.339C269.556 206.141 270.847 199.377 272.072 193.241C273.976 183.705 281.988 181.321 285.757 181.321H317.292C325.622 181.321 330.383 188.365 331.573 193.241C332.271 196.102 333.652 204.579 334.73 211.531C335.271 215.026 332.561 218.166 329.025 218.166Z" fill="black"/>
</svg>
