<svg width="512" height="512" viewBox="0 0 512 512" fill="none" xmlns="http://www.w3.org/2000/svg">
<rect x="171.253" y="268.169" width="73.6897" height="30.2654" rx="6.57943" fill="#FF9E21"/>
<rect x="264.681" y="268.169" width="73.6897" height="30.2654" rx="6.57943" fill="#FF9E21"/>
<path d="M133.092 323.437V243.44H375.453V323.437" stroke="#FF9E21" stroke-width="26.0731"/>
<path d="M235.598 218.166H180.831C177.216 218.166 174.486 214.892 175.153 211.339C176.129 206.141 177.42 199.377 178.645 193.241C180.549 183.705 188.562 181.321 192.33 181.321H223.866C232.196 181.321 236.956 188.365 238.146 193.241C238.844 196.102 240.225 204.579 241.303 211.531C241.845 215.026 239.134 218.166 235.598 218.166Z" fill="#FF9E21"/>
<path d="M329.026 218.166H274.259C270.643 218.166 267.913 214.892 268.581 211.339C269.557 206.141 270.847 199.377 272.073 193.241C273.977 183.705 281.989 181.321 285.758 181.321H317.293C325.623 181.321 330.384 188.365 331.574 193.241C332.272 196.102 333.653 204.579 334.731 211.531C335.272 215.026 332.562 218.166 329.026 218.166Z" fill="#FF9E21"/>
</svg>
